<?xml version="1.0" encoding="UTF-8" standalone="no"?>
<svg
   xmlns:dc="http://purl.org/dc/elements/1.1/"
   xmlns:cc="http://creativecommons.org/ns#"
   xmlns:rdf="http://www.w3.org/1999/02/22-rdf-syntax-ns#"
   xmlns:svg="http://www.w3.org/2000/svg"
   xmlns="http://www.w3.org/2000/svg"
   xmlns:xlink="http://www.w3.org/1999/xlink"
   xmlns:sodipodi="http://sodipodi.sourceforge.net/DTD/sodipodi-0.dtd"
   xmlns:inkscape="http://www.inkscape.org/namespaces/inkscape"
   enable-background="new 0 0 64 64"
   height="31.181641"
   id="Layer_1"
   version="1.1"
   viewBox="0 0 52.371094 31.181641"
   width="52.371094"
   xml:space="preserve"
   inkscape:version="0.91 r13725"
   sodipodi:docname="day26.svg"
   inkscape:export-filename="/home/kamil/Dev/codevember/day26.png"
   inkscape:export-xdpi="173.17883"
   inkscape:export-ydpi="173.17883"><metadata
     id="metadata3402"><rdf:RDF><cc:Work
         rdf:about=""><dc:format>image/svg+xml</dc:format><dc:type
           rdf:resource="http://purl.org/dc/dcmitype/StillImage" /><dc:title /></cc:Work></rdf:RDF></metadata><defs
     id="defs3400"><linearGradient
       inkscape:collect="always"
       id="linearGradient3357"><stop
         style="stop-color:#ffffff;stop-opacity:1;"
         offset="0"
         id="stop3359" /><stop
         style="stop-color:#ffffff;stop-opacity:0;"
         offset="1"
         id="stop3361" /></linearGradient><linearGradient
       inkscape:collect="always"
       xlink:href="#linearGradient3357"
       id="linearGradient3363"
       x1="44.417545"
       y1="26.906246"
       x2="41.831257"
       y2="31.38583"
       gradientUnits="userSpaceOnUse" /></defs><sodipodi:namedview
     pagecolor="#ffffff"
     bordercolor="#666666"
     borderopacity="1"
     objecttolerance="10"
     gridtolerance="10"
     guidetolerance="10"
     inkscape:pageopacity="0"
     inkscape:pageshadow="2"
     inkscape:window-width="1860"
     inkscape:window-height="970"
     id="namedview3398"
     showgrid="false"
     inkscape:zoom="8.8719804"
     inkscape:cx="29.493649"
     inkscape:cy="20.524489"
     inkscape:window-x="30"
     inkscape:window-y="80"
     inkscape:window-maximized="0"
     inkscape:current-layer="g3390"
     fit-margin-top="0"
     fit-margin-left="0"
     fit-margin-right="0"
     fit-margin-bottom="0" /><g
     id="g3390"
     transform="translate(-5.8154276,-16.40918)"><path
       d="m 58.186521,32.000975 c 0,0 -7.815624,10.072266 -27.015624,10.072266 -1.690088,0.351023 -5.388635,-1.446014 -5.388635,0.07422 0,3.007 -5.181084,5.44336 -7.748084,5.44336 l -12.2187504,0 7.2675784,-9.822266 C 11.375532,36.521907 10.267341,35.072561 9.8408186,33.500977 l 0,-3 C 10.267175,28.928807 11.3746,27.478508 13.083006,26.231446 l -7.2675784,-9.822266 12.2187504,0 c 2.567,0.001 7.748084,2.438313 7.748084,5.445313 0.461129,1.476791 3.855086,0.07876 5.388635,0.07422 19.422,-4e-6 27.015624,10.072262 27.015624,10.072262 z"
       id="path3392"
       inkscape:connector-curvature="0"
       sodipodi:nodetypes="cccscccccccccc"
       style="fill:#ececec" /><path
       style="fill:#b3b3b3"
       d="M 0 0 L 7.2675781 9.8222656 C 5.5591721 11.069328 4.451747 12.519627 4.0253906 14.091797 L 4.0253906 15.626953 L 52.341797 15.626953 C 52.343363 15.624959 52.371094 15.591797 52.371094 15.591797 C 52.371094 15.591797 44.777469 5.5195272 25.355469 5.5195312 C 23.82192 5.5240712 20.427926 6.9221035 19.966797 5.4453125 C 19.966797 2.4383125 14.78575 0.001 12.21875 0 L 0 0 z "
       transform="translate(5.8154276,16.40918)"
       id="path3334" /><circle
       style="opacity:1;fill:#666666;fill-opacity:1;stroke:none;stroke-width:1;stroke-miterlimit:4;stroke-dasharray:none"
       id="path3339"
       cx="41.282425"
       cy="32.009251"
       r="5.2204232" /><circle
       r="5.2204232"
       cy="32.009251"
       cx="41.282425"
       id="circle3341"
       style="opacity:1;fill:#666666;fill-opacity:1;stroke:none;stroke-width:1;stroke-miterlimit:4;stroke-dasharray:none" /><circle
       style="opacity:1;fill:#afdde9;fill-opacity:1;stroke:none;stroke-width:1;stroke-miterlimit:4;stroke-dasharray:none"
       id="circle3343"
       cx="41.282425"
       cy="32.009251"
       r="4.3038602" /><circle
       r="3.6839309"
       cy="32.009251"
       cx="41.282425"
       id="circle3355"
       style="opacity:1;fill:url(#linearGradient3363);fill-opacity:1;stroke:none;stroke-width:1;stroke-miterlimit:4;stroke-dasharray:none" /></g></svg>