<?xml version="1.0" encoding="UTF-8" standalone="no"?>
<svg
   xmlns:dc="http://purl.org/dc/elements/1.1/"
   xmlns:cc="http://creativecommons.org/ns#"
   xmlns:rdf="http://www.w3.org/1999/02/22-rdf-syntax-ns#"
   xmlns:svg="http://www.w3.org/2000/svg"
   xmlns="http://www.w3.org/2000/svg"
   xmlns:xlink="http://www.w3.org/1999/xlink"
   xmlns:sodipodi="http://sodipodi.sourceforge.net/DTD/sodipodi-0.dtd"
   xmlns:inkscape="http://www.inkscape.org/namespaces/inkscape"
   enable-background="new 0 0 64 64"
   height="31.181643"
   id="Layer_1"
   version="1.1"
   viewBox="0 0 75.502602 31.181643"
   width="75.502602"
   xml:space="preserve"
   inkscape:version="0.91 r13725"
   sodipodi:docname="day26-move.svg"
   inkscape:export-filename="/home/kamil/Dev/codevember/day26.png"
   inkscape:export-xdpi="173.17883"
   inkscape:export-ydpi="173.17883"><metadata
     id="metadata3402"><rdf:RDF><cc:Work
         rdf:about=""><dc:format>image/svg+xml</dc:format><dc:type
           rdf:resource="http://purl.org/dc/dcmitype/StillImage" /><dc:title></dc:title></cc:Work></rdf:RDF></metadata><defs
     id="defs3400"><linearGradient
       gradientTransform="translate(-4.8438313,1.8822278)"
       inkscape:collect="always"
       xlink:href="#linearGradient3357"
       id="linearGradient3363"
       x1="44.417545"
       y1="26.906246"
       x2="41.831257"
       y2="31.38583"
       gradientUnits="userSpaceOnUse" /><linearGradient
       inkscape:collect="always"
       id="linearGradient3357"><stop
         style="stop-color:#ffffff;stop-opacity:1;"
         offset="0"
         id="stop3359" /><stop
         style="stop-color:#ffffff;stop-opacity:0;"
         offset="1"
         id="stop3361" /></linearGradient></defs><sodipodi:namedview
     pagecolor="#ffffff"
     bordercolor="#666666"
     borderopacity="1"
     objecttolerance="10"
     gridtolerance="10"
     guidetolerance="10"
     inkscape:pageopacity="0"
     inkscape:pageshadow="2"
     inkscape:window-width="1860"
     inkscape:window-height="970"
     id="namedview3398"
     showgrid="false"
     inkscape:zoom="6.2734375"
     inkscape:cx="33.777678"
     inkscape:cy="26.02297"
     inkscape:window-x="30"
     inkscape:window-y="80"
     inkscape:window-maximized="0"
     inkscape:current-layer="g3390"
     fit-margin-top="0"
     fit-margin-left="0"
     fit-margin-right="0"
     fit-margin-bottom="0" /><g
     id="g3390"
     transform="translate(17.31608,-16.409179)"><path
       style="opacity:1;fill:#ffdd55;fill-opacity:1;stroke:none;stroke-width:1;stroke-miterlimit:4;stroke-dasharray:none"
       d="m -13.787985,27.618154 c 0,0 4.0667411,0.798218 4.985225,-0.106786 0.9184839,-0.905004 0.099543,-2.748443 0.099543,-2.748443 0,0 4.3433064,3.089181 5.4043788,1.544967 0.6977725,-1.015491 -2.2227502,-2.953364 -2.2227502,-2.953364 0,0 7.0646819,3.178992 8.7020784,1.744944 C 4.8178865,23.665424 2.9058789,20.924231 2.9058789,20.924231 L 16.623944,26.377724 15.457192,37.991876 2.005366,44.785004 c 0,0 3.5485846,-3.67932 2.4169141,-5.231534 -2.4506912,-3.3614 -12.3871049,1.517801 -12.3871049,1.517801 0,0 5.0304677,-2.576774 4.2719868,-4.50129 -1.0273939,-2.606837 -8.390491,-0.509784 -8.390491,-0.509784 0,0 3.0731217,-1.081073 2.979022,-1.951877 -0.0941,-0.870804 -8.211773,-0.141548 -8.211773,-0.141548 0,0 4.007103,-0.288553 4.010191,-1.664341 0.0031,-1.375788 -3.607238,-1.51612 -3.607238,-1.51612 0,0 6.596898,0.79406 6.927572,-1.06898 0.330674,-1.86304 -3.80243,-2.099177 -3.80243,-2.099177 z"
       id="rect3334"
       inkscape:connector-curvature="0"
       sodipodi:nodetypes="cscsczccccscsczczczc" /><g
       id="g3359"
       transform="translate(4.843828,-1.8822277)"><path
         style="fill:#ececec"
         sodipodi:nodetypes="cccscccccccccc"
         inkscape:connector-curvature="0"
         id="path3392-3"
         d="m 53.34269,33.883203 c 0,0 -7.815624,10.072266 -27.015624,10.072266 -1.690088,0.351023 -5.388635,-1.446014 -5.388635,0.07422 0,3.007 -5.181084,5.44336 -7.748084,5.44336 l -12.21875074,0 7.26757844,-9.822266 C 6.5317007,38.404135 5.4235097,36.954789 4.9969873,35.383205 l 0,-3 c 0.4263564,-1.57217 1.5337814,-3.022469 3.2421874,-4.269531 l -7.26757844,-9.822266 12.21875074,0 c 2.567,10e-4 7.748084,2.438313 7.748084,5.445313 0.461129,1.476791 3.855086,0.07876 5.388635,0.07422 19.422,-4e-6 27.015624,10.072262 27.015624,10.072262 z" /><path
         id="path3334"
         d="m 0.97159626,18.291408 7.26757814,9.822266 c -1.708406,1.247062 -2.8158311,2.697361 -3.2421875,4.269531 l 0,1.535156 48.3164071,0 c 0.0016,-0.002 0.0293,-0.03516 0.0293,-0.03516 0,0 -7.593625,-10.07227 -27.015625,-10.072266 -1.533549,0.0045 -4.927543,1.402572 -5.388672,-0.07422 -3e-6,-3.006996 -5.18105,-5.444308 -7.74805,-5.445308 l -12.21875074,0 z"
         style="fill:#b3b3b3"
         inkscape:connector-curvature="0" /><circle
         r="5.2204232"
         cy="33.891479"
         cx="36.438599"
         id="path3339"
         style="opacity:1;fill:#666666;fill-opacity:1;stroke:none;stroke-width:1;stroke-miterlimit:4;stroke-dasharray:none" /><circle
         style="opacity:1;fill:#666666;fill-opacity:1;stroke:none;stroke-width:1;stroke-miterlimit:4;stroke-dasharray:none"
         id="circle3341"
         cx="36.438599"
         cy="33.891479"
         r="5.2204232" /><circle
         r="4.3038602"
         cy="33.891479"
         cx="36.438599"
         id="circle3343"
         style="opacity:1;fill:#afdde9;fill-opacity:1;stroke:none;stroke-width:1;stroke-miterlimit:4;stroke-dasharray:none" /><circle
         style="opacity:1;fill:url(#linearGradient3363);fill-opacity:1;stroke:none;stroke-width:1;stroke-miterlimit:4;stroke-dasharray:none"
         id="circle3355"
         cx="36.438599"
         cy="33.891479"
         r="3.6839309" /></g></g></svg>